<svg width="34" height="34" viewBox="0 0 34 34" fill="none" xmlns="http://www.w3.org/2000/svg">
<path d="M28.4412 5.70078C28.3823 5.69838 28.3232 5.69798 28.2642 5.69964H26.0387V3.78713C26.0388 3.02212 25.3085 2.57007 24.5435 2.57007H22.492C21.727 2.57007 21.1706 3.02212 21.1706 3.78713V5.69958H12.8252V3.78713C12.8252 3.02212 12.2688 2.57007 11.5038 2.57007H9.45219C8.68725 2.57007 7.95699 3.02212 7.95699 3.78713V5.69958H5.73159C4.311 5.65998 3.12728 6.77953 3.08768 8.20006C3.08602 8.25903 3.08642 8.31813 3.08881 8.3771V28.4756C3.08881 30.0057 4.20151 31.4313 5.73152 31.4313H28.2643C29.7943 31.4313 30.907 30.0057 30.907 28.4756V8.3771C30.9651 6.95717 29.8612 5.75895 28.4412 5.70078ZM22.492 3.96098H24.6479V7.78594H22.492V3.96098ZM9.45226 3.96098H11.4343V7.78594H9.45226V3.96098ZM29.5161 28.4756C29.5161 29.2407 29.0293 30.0404 28.2643 30.0404H5.73159C4.96658 30.0404 4.47979 29.2407 4.47979 28.4756V13.6973H29.5161V28.4756ZM29.5161 8.3771V12.3064H4.47972V8.3771C4.42082 7.72684 4.90023 7.15192 5.55049 7.09301C5.61066 7.08756 5.67122 7.08676 5.73152 7.09055H7.95699V7.85556C7.95699 8.62056 8.68719 9.17691 9.45219 9.17691H11.5038C12.2141 9.19641 12.8057 8.63634 12.8252 7.92604C12.8258 7.90255 12.8258 7.87905 12.8252 7.85556V7.09049H21.1706V7.85549C21.1511 8.56579 21.7112 9.15735 22.4215 9.17685C22.445 9.17751 22.4685 9.17751 22.492 9.17685H24.5436C25.3086 9.17685 26.0388 8.6205 26.0388 7.85549V7.09049H28.2643C28.9159 7.04942 29.4775 7.5444 29.5185 8.19606C29.5223 8.25636 29.5215 8.31693 29.5161 8.3771Z" fill="#FF8159"/>
<path d="M13.1389 23.1901L12.513 26.6674C12.4882 26.8165 12.5127 26.9697 12.5828 27.1037C12.7608 27.444 13.1811 27.5756 13.5214 27.3976L16.6509 25.7632L19.7804 27.3976L20.0933 27.4671C20.2442 27.4698 20.3915 27.4206 20.5106 27.328C20.7184 27.1762 20.8254 26.9221 20.7888 26.6673L20.1629 23.19L22.7013 20.756C22.8829 20.5597 22.9488 20.2828 22.8752 20.0258C22.7815 19.7882 22.5705 19.6168 22.3188 19.5737L18.8415 19.0521L17.2768 15.8878C17.2085 15.747 17.0949 15.6332 16.954 15.5651C16.6083 15.3977 16.1924 15.5422 16.025 15.8878L14.4602 19.0521L10.9829 19.5737C10.7312 19.6167 10.5202 19.7882 10.4266 20.0258C10.3529 20.2828 10.4189 20.5597 10.6004 20.756L13.1389 23.1901ZM15.0514 20.3735C15.2697 20.3408 15.4548 20.1955 15.5382 19.991L16.6509 17.7656L17.7636 19.991C17.847 20.1955 18.032 20.3408 18.2504 20.3735L20.7192 20.7212L18.9458 22.4251C18.7806 22.5886 18.7032 22.821 18.7372 23.051L19.1544 25.5198L16.9638 24.3376L16.6508 24.268L16.3379 24.3376L14.1472 25.5198L14.5644 23.051C14.5985 22.821 14.521 22.5886 14.3558 22.4251L12.5824 20.7212L15.0514 20.3735Z" fill="#FF8159"/>
</svg>
