<svg width="47" height="13" viewBox="0 0 47 13" fill="none" xmlns="http://www.w3.org/2000/svg">
<path d="M4.94006 12.208C4.3854 12.176 3.83606 12.0747 3.29206 11.904C2.74806 11.7227 2.25206 11.4667 1.80406 11.136C1.36673 10.8053 0.993396 10.4 0.684063 9.92C0.374729 9.44 0.182729 8.88533 0.108063 8.256C0.0333959 7.744 0.0280625 7.22667 0.0920625 6.704C0.156063 6.17067 0.278729 5.664 0.460063 5.184C0.694729 4.544 1.01473 3.95733 1.42006 3.424C1.8254 2.88 2.29473 2.41067 2.82806 2.016C3.37206 1.61067 3.9694 1.28533 4.62006 1.04C5.27073 0.794666 5.94806 0.64 6.65206 0.575999C6.8974 0.554666 7.14273 0.549333 7.38806 0.559999C7.6334 0.559999 7.87873 0.570666 8.12406 0.591999C8.8174 0.677333 9.48406 0.885333 10.1241 1.216C10.7747 1.54667 11.3081 2.032 11.7241 2.672C11.4681 2.832 11.2121 2.992 10.9561 3.152C10.7107 3.312 10.4601 3.472 10.2041 3.632C9.79873 3.06667 9.27606 2.672 8.63606 2.448C8.00673 2.21333 7.3134 2.128 6.55606 2.192C5.73473 2.288 4.97206 2.54933 4.26806 2.976C3.56406 3.392 3.0094 3.98933 2.60406 4.768C2.39073 5.184 2.23073 5.62667 2.12406 6.096C2.02806 6.56533 1.98006 7.01333 1.98006 7.44C1.98006 7.81333 2.03873 8.17067 2.15606 8.512C2.28406 8.84267 2.46006 9.14667 2.68406 9.424C2.91873 9.69067 3.19606 9.92 3.51606 10.112C3.83606 10.2933 4.19873 10.4213 4.60406 10.496C4.98806 10.56 5.3774 10.5867 5.77206 10.576C6.1774 10.5653 6.5774 10.512 6.97206 10.416C7.36673 10.32 7.7454 10.1813 8.10806 10C8.4814 9.808 8.82273 9.568 9.13206 9.28L10.3481 10.272C9.65473 10.944 8.84406 11.4453 7.91606 11.776C6.99873 12.1067 6.00673 12.2507 4.94006 12.208ZM19.7913 0.815999C20.1753 2.672 20.5646 4.53867 20.9593 6.416C21.354 8.29333 21.7433 10.1547 22.1273 12H20.0473L19.5833 9.664L14.5593 9.648L13.2473 12H11.1513L17.4553 0.815999H19.7913ZM19.2633 8C19.2633 7.97867 19.242 7.85067 19.1993 7.616C19.1566 7.37067 19.1033 7.072 19.0393 6.72C18.9753 6.35733 18.9006 5.968 18.8153 5.552C18.7406 5.136 18.666 4.74133 18.5913 4.368C18.5166 3.99467 18.4526 3.66933 18.3993 3.392C18.346 3.11467 18.3086 2.93333 18.2873 2.848H18.2393L15.4233 8H19.2633ZM34.2692 3.648C34.3012 4.16 34.2479 4.624 34.1092 5.04C33.9705 5.456 33.7572 5.87733 33.4692 6.304C33.1812 6.72 32.8452 7.056 32.4612 7.312C32.0772 7.55733 31.6505 7.74933 31.1812 7.888L32.3972 12.016H30.3012L29.1812 8.144H28.9412H26.2052L25.5332 12H23.5972L25.5972 0.815999H30.4452C30.9359 0.815999 31.3999 0.869333 31.8372 0.976C32.2745 1.072 32.6639 1.232 33.0052 1.456C33.3465 1.68 33.6239 1.97333 33.8372 2.336C34.0612 2.688 34.2052 3.12533 34.2692 3.648ZM31.8692 5.568C32.0399 5.32267 32.1625 5.056 32.2372 4.768C32.3119 4.48 32.3385 4.18667 32.3172 3.888C32.2852 3.41867 32.0932 3.06667 31.7412 2.832C31.3999 2.58667 30.9359 2.464 30.3492 2.464H27.1972L26.4932 6.528H29.3412C29.5759 6.528 29.8105 6.51733 30.0452 6.496C30.2905 6.47467 30.5199 6.432 30.7332 6.368C30.9572 6.29333 31.1652 6.192 31.3572 6.064C31.5492 5.936 31.7199 5.77067 31.8692 5.568ZM42.4461 0.879999C43.0327 0.933332 43.5874 1.05067 44.1101 1.232C44.6327 1.40267 45.0861 1.65333 45.4701 1.984C45.8541 2.31467 46.1474 2.73067 46.3501 3.232C46.5634 3.73333 46.6487 4.336 46.6061 5.04C46.5527 6.05333 46.3714 7.01333 46.0621 7.92C45.8061 8.688 45.4541 9.33333 45.0061 9.856C44.5581 10.3787 44.0301 10.8 43.4221 11.12C42.8141 11.44 42.1367 11.6693 41.3901 11.808C40.6434 11.936 39.8487 12 39.0061 12H35.1181C35.4487 10.1333 35.7741 8.272 36.0941 6.416C36.4247 4.56 36.7554 2.69333 37.0861 0.815999H41.0861C41.3101 0.815999 41.5341 0.821333 41.7581 0.832C41.9927 0.842666 42.2221 0.858666 42.4461 0.879999ZM44.6541 5.552C44.6754 5.31733 44.6807 5.072 44.6701 4.816C44.6594 4.56 44.6167 4.31467 44.5421 4.08C44.4674 3.83467 44.3501 3.61067 44.1901 3.408C44.0407 3.20533 43.8327 3.04 43.5661 2.912C43.2674 2.752 42.9421 2.64 42.5901 2.576C42.2381 2.512 41.8541 2.46933 41.4381 2.448H38.6861L37.2941 10.368H38.9261C39.2354 10.3787 39.5501 10.3787 39.8701 10.368C40.1901 10.3573 40.5101 10.3307 40.8301 10.288C41.6621 10.2027 42.3874 9.93067 43.0061 9.472C43.6354 9.01333 44.0621 8.352 44.2861 7.488C44.3821 7.168 44.4567 6.848 44.5101 6.528C44.5741 6.208 44.6221 5.88267 44.6541 5.552Z" fill="#FF8159"/>
</svg>
