<svg width="16" height="16" viewBox="0 0 16 16" fill="none" xmlns="http://www.w3.org/2000/svg">
<path d="M7.04842 5.04408C7.04842 5.30879 7.04842 6.49504 7.04842 6.49504H6V8.26952H7.04842V13.5439H9.20083V8.26952H10.6454C10.6454 8.26952 10.7807 7.41905 10.8459 6.48769C10.6575 6.48769 9.20808 6.48769 9.20808 6.48769C9.20808 6.48769 9.20808 5.45584 9.20808 5.27447C9.20808 5.0931 9.44241 4.84801 9.67431 4.84801C9.90622 4.84801 10.3942 4.84801 10.8484 4.84801C10.8484 4.60537 10.8484 3.77205 10.8484 3C10.2444 3 9.55594 3 9.25398 3C6.99528 3.00245 7.04842 4.77938 7.04842 5.04408Z" fill="white"/>
</svg>
