<svg width="16" height="16" viewBox="0 0 16 16" fill="none" xmlns="http://www.w3.org/2000/svg">
<path d="M8.4749 15.6612C8.42635 15.6612 8.3778 15.6612 8.32892 15.6609C7.17971 15.6637 6.11786 15.6346 5.08521 15.5717C4.13846 15.5141 3.27426 15.1869 2.5859 14.6256C1.92169 14.084 1.46812 13.3517 1.23781 12.4492C1.03736 11.6635 1.02673 10.8923 1.01655 10.1463C1.00917 9.61109 1.00157 8.97687 1 8.33191C1.00157 7.68426 1.00917 7.05004 1.01655 6.5148C1.02673 5.76895 1.03736 4.9977 1.23781 4.21191C1.46812 3.30945 1.92169 2.57713 2.5859 2.03552C3.27426 1.47423 4.13846 1.14705 5.08532 1.08944C6.11798 1.02669 7.18005 0.997386 8.33172 1.00018C9.48127 0.997722 10.5428 1.02669 11.5754 1.08944C12.5222 1.14705 13.3864 1.47423 14.0747 2.03552C14.7391 2.57713 15.1925 3.30945 15.4228 4.21191C15.6233 4.99759 15.6339 5.76895 15.6441 6.5148C15.6515 7.05004 15.6592 7.68426 15.6606 8.32922V8.33191C15.6592 8.97687 15.6515 9.61109 15.6441 10.1463C15.6339 10.8922 15.6234 11.6634 15.4228 12.4492C15.1925 13.3517 14.7391 14.084 14.0747 14.6256C13.3864 15.1869 12.5222 15.5141 11.5754 15.5717C10.5865 15.6319 9.57064 15.6612 8.4749 15.6612ZM8.32892 14.5155C9.45945 14.5182 10.4975 14.4897 11.5059 14.4284C12.2217 14.3849 12.8424 14.1526 13.3509 13.7379C13.8209 13.3546 14.1447 12.8257 14.313 12.166C14.4799 11.512 14.4895 10.8097 14.4988 10.1307C14.5061 9.59901 14.5137 8.96926 14.5152 8.33057C14.5137 7.69175 14.5061 7.06212 14.4988 6.53046C14.4895 5.85139 14.4799 5.14915 14.313 4.49502C14.1447 3.83529 13.8209 3.30643 13.3509 2.9231C12.8424 2.50856 12.2217 2.27624 11.5059 2.23273C10.4975 2.17132 9.45945 2.14302 8.33161 2.14548C7.2013 2.14279 6.16317 2.17132 5.15478 2.23273C4.4389 2.27624 3.81821 2.50856 3.30972 2.9231C2.8397 3.30643 2.51599 3.83529 2.34764 4.49502C2.18075 5.14915 2.17113 5.85127 2.16185 6.53046C2.15458 7.06256 2.14697 7.69265 2.14541 8.33191C2.14697 8.96837 2.15458 9.59857 2.16185 10.1307C2.17113 10.8097 2.18075 11.512 2.34764 12.166C2.51599 12.8257 2.8397 13.3546 3.30972 13.7379C3.81821 14.1525 4.4389 14.3848 5.15478 14.4283C6.16317 14.4897 7.20153 14.5183 8.32892 14.5155ZM8.30163 11.91C6.32804 11.91 4.72224 10.3043 4.72224 8.33057C4.72224 6.35686 6.32804 4.75117 8.30163 4.75117C10.2753 4.75117 11.881 6.35686 11.881 8.33057C11.881 10.3043 10.2753 11.91 8.30163 11.91ZM8.30163 5.89657C6.95958 5.89657 5.86764 6.98851 5.86764 8.33057C5.86764 9.67262 6.95958 10.7646 8.30163 10.7646C9.64379 10.7646 10.7356 9.67262 10.7356 8.33057C10.7356 6.98851 9.64379 5.89657 8.30163 5.89657ZM12.2819 3.60576C11.8075 3.60576 11.4229 3.99032 11.4229 4.46482C11.4229 4.93931 11.8075 5.32387 12.2819 5.32387C12.7564 5.32387 13.141 4.93931 13.141 4.46482C13.141 3.99032 12.7564 3.60576 12.2819 3.60576Z" fill="white"/>
</svg>
