<svg width="194" height="48" viewBox="0 0 194 48" fill="none" xmlns="http://www.w3.org/2000/svg">
<path d="M30.2773 47.7254C24.2065 47.7422 18.3768 45.3435 14.0666 41.0554C13.7127 40.7054 13.3787 40.3554 13.0447 39.9804C9.4722 35.9528 7.40996 30.8027 7.2124 25.4154C7.2124 25.1704 7.2124 24.9154 7.2124 24.6804V24.5754C7.3015 18.4952 9.77205 12.6943 14.0902 8.42626C18.4084 4.15817 24.2274 1.76562 30.2898 1.76563C36.3522 1.76562 42.1712 4.15817 46.4894 8.42626C50.8075 12.6943 53.2781 18.4952 53.3672 24.5754C53.3666 25.3603 53.3267 26.1446 53.2476 26.9254C53.2226 27.1904 53.1927 27.4254 53.1578 27.7154C52.8289 30.1648 52.105 32.5442 51.0143 34.7604C50.8548 35.0954 50.6704 35.4504 50.461 35.8354C48.4564 39.4399 45.5288 42.4423 41.9806 44.5325C38.4324 46.6227 34.3922 47.7249 30.2773 47.7254ZM30.2773 2.43041C24.4231 2.43571 18.81 4.77038 14.6699 8.92208C10.5299 13.0738 8.20102 18.7034 8.19442 24.5754V24.6804C8.19442 24.9154 8.19442 25.1404 8.19442 25.3754C8.38091 30.5323 10.3554 35.4623 13.7775 39.3154C14.0965 39.6754 14.4105 40.0104 14.7744 40.3404C17.1979 42.739 20.1415 44.5431 23.3752 45.6117C26.6089 46.6803 30.0451 46.9844 33.4154 46.5003C36.7857 46.0162 39.9988 44.7569 42.8035 42.821C45.6083 40.8851 47.9288 38.3249 49.5837 35.3404C49.7881 34.9754 49.9625 34.6404 50.1121 34.3404C51.1518 32.2129 51.8388 29.9297 52.1459 27.5804C52.1808 27.3254 52.2057 27.0804 52.2306 26.8304C52.3054 26.0704 52.3453 25.3304 52.3453 24.5754C52.3387 18.706 50.0119 13.0786 45.8751 8.92737C41.7382 4.7761 36.129 2.43968 30.2773 2.43041Z" fill="#FF8159"/>
<path d="M50.8842 34.5395C50.7147 34.8945 50.5353 35.2445 50.3409 35.5895C44.03 33.1995 37.9186 32.6845 32.1312 34.0545C28.577 34.8945 25.9749 36.2145 23.4525 37.4995C20.7408 38.8745 18.1636 40.1795 14.7589 40.6945C14.41 40.3545 14.086 40.0095 13.762 39.6445C17.4159 39.2545 20.1027 37.8895 22.9341 36.4495C25.5163 35.1345 28.1832 33.7795 31.872 32.9095C37.9335 31.4995 44.3042 32.0245 50.8842 34.5395Z" fill="#FF8159"/>
<path d="M53.3373 27.6152C50.3898 28.8124 47.3134 29.6615 44.1701 30.1452C42.7678 30.3595 41.3515 30.4681 39.933 30.4702C37.3331 30.4917 34.7486 30.0672 32.2912 29.2152C30.8587 28.6863 29.466 28.0546 28.1239 27.3252C26.0794 26.1586 23.8737 25.3026 21.5788 24.7852C20.0742 24.4589 18.5417 24.2797 17.0027 24.2502C13.8105 24.2086 10.6341 24.7055 7.60621 25.7202L7.2124 24.5002C10.4342 23.4389 13.8117 22.9318 17.2021 23.0002C17.874 19.5854 19.7899 16.5441 22.5763 14.4696C25.3626 12.395 28.8195 11.4359 32.2727 11.7793C35.7259 12.1227 38.9277 13.7441 41.2536 16.3271C43.5795 18.9101 44.8628 22.2696 44.8531 25.7502C44.8551 26.7781 44.7414 27.8029 44.5141 28.8052C47.3745 28.3129 50.1749 27.5185 52.8687 26.4352L53.3373 27.6152Z" fill="#FF8159"/>
<path d="M71.0864 14.5349L70.6328 17.1499H76.7243L76.3355 19.2749H70.254L69.3916 24.2449H66.8992C67.2315 22.2649 67.5788 20.2882 67.941 18.3149C68.3032 16.3415 68.6489 14.3632 68.9779 12.3799H78.2547L77.8658 14.5349H71.0864Z" fill="white"/>
<path d="M82.732 12.3799L80.6333 24.2449H78.2107L80.2944 12.3799H82.732Z" fill="white"/>
<path d="M93.1207 14.5349H89.3471L87.6373 24.2449H85.2197L86.9295 14.5349H83.0513L83.455 12.3799H93.5194L93.1207 14.5349Z" fill="white"/>
<path d="M116.545 12.3799L110.539 24.2449H107.862L106.95 16.8599H106.885L103.211 24.2449H100.569L98.8591 12.3799H101.571L102.363 21.8799H102.433L106.576 12.3799H108.829L109.641 21.9049H109.711C110.376 20.3649 111.06 18.7799 111.765 17.1499C112.469 15.5199 113.161 13.9299 113.839 12.3799H116.545Z" fill="white"/>
<path d="M120.877 12.3799L118.778 24.2449H116.36L118.444 12.3799H120.877Z" fill="white"/>
<path d="M131.27 14.5349H127.497L125.787 24.2449H123.365L125.074 14.5349H121.181L121.59 12.3799H131.674L131.27 14.5349Z" fill="white"/>
<path d="M144.708 12.3799L142.625 24.2449H140.207L141.05 19.4099H134.993L134.131 24.2449H131.708L133.792 12.3799H136.229L135.392 17.2699H141.423L142.286 12.3799H144.708Z" fill="white"/>
<path d="M163.66 12.3799L161.581 24.2449H159.159L160.006 19.4099H153.95L153.082 24.2449H150.665L152.743 12.3799H155.181L154.333 17.2699H160.395L161.257 12.3799H163.66Z" fill="white"/>
<path d="M168.487 14.5349L168.029 17.1499H174.125L173.736 19.2749H167.675L167.176 22.0549H173.981L173.607 24.2449H164.305C164.657 22.2649 165.004 20.2882 165.347 18.3149C165.689 16.3415 166.036 14.3632 166.389 12.3799H175.665L175.272 14.5349H168.487Z" fill="white"/>
<path d="M187 15.0299C187.091 15.6156 187.081 16.2126 186.971 16.7949C186.865 17.3118 186.669 17.806 186.392 18.2549C186.118 18.6903 185.765 19.0702 185.35 19.3749C184.913 19.6984 184.424 19.9453 183.905 20.1049L185.126 24.2649H182.499L181.417 20.3749H178.76C178.636 21.0649 178.526 21.7149 178.421 22.3199C178.317 22.9249 178.207 23.5649 178.083 24.2449H175.65C175.999 22.2882 176.351 20.3082 176.707 18.3049C177.062 16.3016 177.415 14.3266 177.763 12.3799H182.993C183.439 12.3794 183.884 12.4196 184.324 12.4999C184.743 12.5737 185.149 12.7137 185.525 12.9149C185.89 13.1139 186.21 13.3882 186.462 13.7199C186.746 14.1055 186.931 14.5555 187 15.0299ZM184.244 17.3349C184.373 17.0875 184.467 16.8233 184.523 16.5499C184.583 16.2724 184.596 15.9868 184.563 15.7049C184.544 15.53 184.486 15.3617 184.393 15.2121C184.301 15.0625 184.177 14.9353 184.029 14.8399C183.712 14.6451 183.345 14.5461 182.973 14.5549H179.807L179.149 18.2049H182.14C182.33 18.2049 182.524 18.2049 182.723 18.2049C182.917 18.1878 183.107 18.1493 183.292 18.0899C183.472 18.0326 183.64 17.9447 183.79 17.8299C183.97 17.694 184.124 17.5262 184.244 17.3349Z" fill="white"/>
<path d="M71.8806 33.1852C72.0833 33.1926 72.2823 33.2412 72.4657 33.3282C72.6491 33.4151 72.8129 33.5386 72.9472 33.6911C73.0815 33.8436 73.1835 34.0219 73.2469 34.2151C73.3103 34.4084 73.3339 34.6125 73.3162 34.8152C73.335 35.0754 73.2799 35.3357 73.1573 35.5658C73.0347 35.7959 72.8495 35.9864 72.6233 36.1152C71.944 36.4182 71.2018 36.552 70.4599 36.5052H67.4341V29.9352H70.4599C71.1673 29.8827 71.8753 30.0299 72.5037 30.3602C72.7151 30.5089 72.8846 30.7101 72.9955 30.944C73.1065 31.178 73.1551 31.4368 73.1367 31.6952C73.1476 32.0306 73.0496 32.3604 72.8576 32.6352C72.5981 32.9271 72.2458 33.1197 71.8606 33.1802L71.8806 33.1852ZM68.1818 32.8752H70.4599C70.9537 32.904 71.447 32.8095 71.8955 32.6002C72.0449 32.5311 72.1714 32.4204 72.2598 32.2812C72.3482 32.142 72.3947 31.9802 72.394 31.8152C72.3948 31.6435 72.3609 31.4734 72.2943 31.3152C72.2258 31.1646 72.1126 31.0389 71.9703 30.9552C71.7868 30.8488 71.586 30.776 71.3771 30.7402C71.0756 30.6902 70.7704 30.6667 70.4649 30.6702H68.1868L68.1818 32.8752ZM70.4599 35.7902C70.8083 35.7961 71.1567 35.7744 71.5017 35.7252C71.7275 35.6961 71.9467 35.6285 72.1497 35.5252C72.2938 35.4562 72.4099 35.3397 72.4787 35.1952C72.6053 34.874 72.6053 34.5164 72.4787 34.1952C72.4015 34.0408 72.2776 33.9148 72.1248 33.8352C71.9242 33.7234 71.7043 33.6505 71.4768 33.6202C71.1472 33.5676 70.8135 33.5441 70.4798 33.5502H68.2018V35.7752L70.4599 35.7902Z" fill="#FF8159"/>
<path d="M79.4222 33.9646V36.4996H78.6694V33.9646L76.177 29.9346H77.0095L79.0632 33.3296L81.0572 29.9346H81.8897L79.4222 33.9646Z" fill="#FF8159"/>
<path d="M96.4361 29.9347V36.4997H95.6883V31.4197L93.3754 35.4197H93.3305L91.0175 31.4197V36.4997H90.2698V29.9347H91.0275L93.3205 33.9997H93.3454L95.6784 29.9297L96.4361 29.9347Z" fill="#FF8159"/>
<path d="M105.224 36.4997L104.575 34.9497H101.086L100.438 36.4997H99.6006L102.422 29.9297H103.22L106.016 36.4997H105.224ZM101.325 34.2997H104.316L102.821 30.7497H102.791L101.325 34.2997Z" fill="#FF8159"/>
<path d="M114.53 32.0597C114.552 32.5281 114.423 32.9913 114.161 33.3797C113.893 33.7217 113.52 33.9645 113.099 34.0697L114.55 36.4996H113.732L112.376 34.1797H109.884V36.4996H109.136V29.9347H112.067C112.724 29.8907 113.374 30.0919 113.892 30.4997C114.107 30.6957 114.276 30.9374 114.386 31.2073C114.497 31.4772 114.546 31.7684 114.53 32.0597ZM112.087 33.4997C112.532 33.5289 112.975 33.4074 113.343 33.1546C113.496 33.0221 113.616 32.8551 113.692 32.6674C113.768 32.4797 113.799 32.2766 113.782 32.0747C113.793 31.8794 113.76 31.6841 113.686 31.5032C113.612 31.3223 113.498 31.1605 113.353 31.0297C112.987 30.7627 112.539 30.6335 112.087 30.6647H109.904V33.4997H112.087Z" fill="#FF8159"/>
<path d="M123.757 29.9346V36.4996H123.109L118.772 31.2296V36.4996H118.024V29.9346H118.692L123.019 35.3196V29.9346H123.757Z" fill="#FF8159"/>
<path d="M128.292 29.9346V36.4996H127.55V29.9346H128.292Z" fill="#FF8159"/>
<path d="M143.07 29.9346V36.4996H142.422L138.085 31.2296V36.4996H137.337V29.9346H138L142.332 35.3196V29.9346H143.07Z" fill="#FF8159"/>
<path d="M147.604 29.9346V36.4996H146.857V29.9346H147.604Z" fill="#FF8159"/>
<path d="M157.535 35.5002C157.212 35.8628 156.812 36.1467 156.363 36.3302C155.363 36.7075 154.263 36.7234 153.253 36.3752C152.827 36.2239 152.438 35.9836 152.111 35.6702C151.79 35.3657 151.539 34.9935 151.378 34.5802C151.203 34.1347 151.115 33.6593 151.119 33.1802C151.113 32.708 151.2 32.2392 151.373 31.8002C151.535 31.3944 151.782 31.0279 152.096 30.7252C152.422 30.4153 152.81 30.1769 153.233 30.0252C153.713 29.8562 154.219 29.7732 154.728 29.7802C155.292 29.7681 155.852 29.8736 156.373 30.0902C156.836 30.2865 157.247 30.5877 157.575 30.9702L156.946 31.4052C156.679 31.1123 156.35 30.8819 155.984 30.7302C155.586 30.5664 155.159 30.4848 154.728 30.4902C154.341 30.4874 153.957 30.5516 153.592 30.6802C153.256 30.7969 152.947 30.9806 152.684 31.2202C152.427 31.4586 152.221 31.748 152.081 32.0702C151.929 32.4201 151.854 32.7987 151.862 33.1802C151.856 33.5693 151.928 33.9555 152.076 34.3152C152.211 34.6407 152.413 34.9337 152.669 35.1752C152.933 35.4148 153.242 35.5999 153.577 35.7202C153.947 35.8488 154.336 35.9131 154.728 35.9102C155.147 35.9164 155.563 35.8435 155.954 35.6952C156.314 35.5576 156.636 35.3386 156.897 35.0552L157.535 35.5002Z" fill="#FF8159"/>
<path d="M164.365 29.7955C164.874 29.7889 165.381 29.8736 165.86 30.0455C166.286 30.1981 166.675 30.4382 167.002 30.7505C167.319 31.0576 167.567 31.4292 167.73 31.8405C167.908 32.2869 167.996 32.7645 167.989 33.2455C167.993 33.7045 167.906 34.1599 167.735 34.5855C167.573 34.9919 167.329 35.3598 167.017 35.6655C166.691 35.9835 166.302 36.2288 165.875 36.3855C165.397 36.5651 164.89 36.6533 164.38 36.6455C163.871 36.6531 163.364 36.5684 162.884 36.3955C162.461 36.2415 162.073 36.0034 161.743 35.6955C161.424 35.3935 161.173 35.0271 161.005 34.6205C160.832 34.1832 160.745 33.7161 160.751 33.2455C160.747 32.7722 160.831 32.3024 161 31.8605C161.161 31.4498 161.408 31.0783 161.723 30.7705C162.049 30.4569 162.436 30.2136 162.86 30.0555C163.341 29.8753 163.851 29.7871 164.365 29.7955ZM164.365 35.9305C164.758 35.9353 165.149 35.8727 165.521 35.7455C165.859 35.6264 166.169 35.4411 166.434 35.2005C166.692 34.965 166.895 34.6746 167.027 34.3505C167.174 34.0011 167.247 33.6248 167.241 33.2455C167.245 32.855 167.172 32.4676 167.027 32.1055C166.89 31.7786 166.684 31.4852 166.424 31.2455C166.158 31.0064 165.848 30.8229 165.512 30.7055C165.144 30.5728 164.756 30.5068 164.365 30.5105C163.956 30.5035 163.549 30.5696 163.164 30.7055C162.829 30.8217 162.522 31.0055 162.261 31.2455C162.013 31.4882 161.819 31.7815 161.693 32.1055C161.559 32.4703 161.493 32.8567 161.499 33.2455C161.493 33.6215 161.566 33.9945 161.713 34.3405C161.853 34.6602 162.056 34.9478 162.311 35.1855C162.579 35.4239 162.888 35.6103 163.223 35.7355C163.589 35.8686 163.976 35.9346 164.365 35.9305Z" fill="#FF8159"/>
<path d="M175.994 35.7896V36.4996H171.508V29.9346H172.256V35.7896H175.994Z" fill="#FF8159"/>
<path d="M179.977 30.6496V32.8696H183.9V33.5696H179.977V35.7896H184.369V36.4996H179.229V29.9346H184.369V30.6496H179.977Z" fill="#FF8159"/>
<path d="M186.991 11.5752C186.744 11.5762 186.503 11.5036 186.297 11.3666C186.091 11.2296 185.931 11.0345 185.836 10.8059C185.741 10.5772 185.716 10.3255 185.764 10.0826C185.812 9.83961 185.93 9.61643 186.105 9.44131C186.28 9.2662 186.502 9.14704 186.744 9.09897C186.987 9.0509 187.238 9.07608 187.465 9.1713C187.693 9.26653 187.888 9.42752 188.024 9.63385C188.161 9.84017 188.233 10.0825 188.232 10.3302C188.232 10.6604 188.102 10.977 187.869 11.2105C187.636 11.444 187.32 11.5752 186.991 11.5752ZM186.991 9.27019C186.782 9.2692 186.577 9.33052 186.403 9.44639C186.228 9.56226 186.092 9.72746 186.011 9.92106C185.931 10.1147 185.909 10.328 185.949 10.5339C185.989 10.7398 186.09 10.9292 186.237 11.0779C186.385 11.2267 186.573 11.3281 186.778 11.3694C186.983 11.4107 187.196 11.39 187.389 11.31C187.583 11.2299 187.748 11.094 187.865 10.9196C187.981 10.7452 188.043 10.54 188.043 10.3302C188.044 10.1912 188.017 10.0535 187.964 9.92492C187.912 9.79634 187.834 9.67945 187.737 9.58095C187.639 9.48246 187.523 9.4043 187.395 9.35097C187.267 9.29764 187.13 9.27018 186.991 9.27019Z" fill="white"/>
<path d="M187.577 10.0748C187.579 10.1625 187.553 10.2484 187.502 10.3198C187.451 10.3882 187.38 10.4388 187.299 10.4648L187.582 10.9648H187.354L187.096 10.5098H186.691V10.9648H186.468V9.63482H187.067C187.139 9.6339 187.211 9.64402 187.28 9.66482C187.338 9.6825 187.393 9.71325 187.438 9.75482C187.484 9.78909 187.521 9.83587 187.542 9.88982C187.567 9.9482 187.579 10.0113 187.577 10.0748ZM187.082 10.3148C187.157 10.3207 187.231 10.3013 187.294 10.2598C187.343 10.2095 187.369 10.1423 187.369 10.0723C187.369 10.0024 187.343 9.93516 187.294 9.88482C187.232 9.84183 187.157 9.82236 187.082 9.82982H186.705V10.3298L187.082 10.3148Z" fill="white"/>
</svg>
