<svg width="198" height="66" viewBox="0 0 198 66" fill="none" xmlns="http://www.w3.org/2000/svg">
<path d="M30.7543 54.7249C24.7259 54.7417 18.937 52.343 14.6569 48.0549C14.3054 47.7049 13.9738 47.3549 13.6421 46.9799C10.0946 42.9523 8.04683 37.8022 7.85065 32.4149C7.85065 32.1699 7.85065 31.9149 7.85065 31.6799V31.5749C7.93912 25.4947 10.3924 19.6939 14.6804 15.4258C18.9683 11.1577 24.7466 8.76514 30.7667 8.76514C36.7867 8.76514 42.565 11.1577 46.853 15.4258C51.1409 19.6939 53.5942 25.4947 53.6827 31.5749C53.6821 32.3598 53.6425 33.1441 53.5639 33.9249C53.5391 34.1899 53.5094 34.4249 53.4748 34.7149C53.1482 37.1643 52.4293 39.5437 51.3463 41.7599C51.1879 42.0949 51.0047 42.4499 50.7968 42.8349C48.8062 46.4394 45.8991 49.4418 42.3757 51.532C38.8523 53.6222 34.8404 54.7244 30.7543 54.7249ZM30.7543 9.42993C24.941 9.43522 19.3672 11.7699 15.256 15.9216C11.1449 20.0733 8.83235 25.7029 8.8258 31.5749V31.6799C8.8258 31.9149 8.8258 32.1399 8.8258 32.3749C9.01099 37.5318 10.9717 42.4618 14.3698 46.3149C14.6866 46.6749 14.9984 47.0099 15.3598 47.3399C17.7663 49.7386 20.6893 51.5426 23.9004 52.6112C27.1115 53.6798 30.5237 53.9839 33.8705 53.4998C37.2172 53.0157 40.4078 51.7565 43.1929 49.8205C45.978 47.8846 48.2823 45.3244 49.9256 42.3399C50.1286 41.9749 50.3018 41.6399 50.4503 41.3399C51.4828 39.2125 52.165 36.9292 52.4699 34.5799C52.5046 34.3249 52.5293 34.0799 52.5541 33.8299C52.6283 33.0699 52.6679 32.3299 52.6679 31.5749C52.6614 25.7055 50.3509 20.0782 46.243 15.9269C42.135 11.7756 36.5651 9.43919 30.7543 9.42993Z" fill="#FF8159"/>
<path d="M51.2176 41.54C51.0493 41.895 50.8711 42.245 50.6781 42.59C44.4114 40.2 38.3427 39.685 32.5957 41.055C29.0664 41.895 26.4825 43.215 23.9778 44.5C21.285 45.875 18.7258 47.18 15.345 47.695C14.9985 47.355 14.6767 47.01 14.355 46.645C17.9833 46.255 20.6514 44.89 23.463 43.45C26.0271 42.135 28.6753 40.78 32.3383 39.91C38.3575 38.5 44.6836 39.025 51.2176 41.54Z" fill="#FF8159"/>
<path d="M53.6539 34.6152C50.727 35.8124 47.6721 36.6615 44.5509 37.1452C43.1584 37.3595 41.7519 37.4681 40.3434 37.4702C37.7616 37.4917 35.1952 37.0672 32.755 36.2152C31.3325 35.6863 29.9496 35.0546 28.6168 34.3252C26.5866 33.1586 24.3963 32.3026 22.1175 31.7852C20.6235 31.4589 19.1016 31.2797 17.5734 31.2502C14.4035 31.2086 11.2493 31.7055 8.24261 32.7202L7.85156 31.5002C11.0508 30.4389 14.4047 29.9318 17.7714 30.0002C18.4386 26.5854 20.3412 23.5441 23.108 21.4696C25.8749 19.395 29.3076 18.4359 32.7366 18.7793C36.1656 19.1227 39.3451 20.7441 41.6547 23.3271C43.9644 25.9101 45.2387 29.2696 45.229 32.7502C45.231 33.7781 45.1181 34.8029 44.8924 35.8052C47.7328 35.3129 50.5137 34.5185 53.1886 33.4352L53.6539 34.6152Z" fill="#FF8159"/>
<path d="M71.2799 21.5349L70.8295 24.1499H76.8784L76.4923 26.2749H70.4533L69.5969 31.2449H67.1219C67.4519 29.2649 67.7968 27.2882 68.1565 25.3149C68.5162 23.3415 68.8594 21.3632 69.1861 19.3799H78.398L78.0119 21.5349H71.2799Z" fill="black"/>
<path d="M82.8432 19.3799L80.7592 31.2449H78.3535L80.4226 19.3799H82.8432Z" fill="black"/>
<path d="M93.159 21.5349H89.4118L87.714 31.2449H85.3132L87.0111 21.5349H83.16L83.5609 19.3799H93.555L93.159 21.5349Z" fill="black"/>
<path d="M116.419 19.3799L110.454 31.2449H107.796L106.89 23.8599H106.826L103.178 31.2449H100.554L98.8565 19.3799H101.549L102.336 28.8799H102.406L106.519 19.3799H108.757L109.563 28.9049H109.633C110.293 27.3649 110.972 25.7799 111.672 24.1499C112.372 22.5199 113.058 20.9299 113.731 19.3799H116.419Z" fill="black"/>
<path d="M120.721 19.3799L118.637 31.2449H116.236L118.305 19.3799H120.721Z" fill="black"/>
<path d="M131.041 21.5349H127.294L125.596 31.2449H123.191L124.889 21.5349H121.023L121.428 19.3799H131.442L131.041 21.5349Z" fill="black"/>
<path d="M144.387 19.3799L142.318 31.2449H139.917L140.753 26.4099H134.739L133.883 31.2449H131.477L133.546 19.3799H135.967L135.135 24.2699H141.125L141.981 19.3799H144.387Z" fill="black"/>
<path d="M163.206 19.3799L161.142 31.2449H158.737L159.578 26.4099H153.564L152.702 31.2449H150.302L152.366 19.3799H154.786L153.945 24.2699H159.964L160.82 19.3799H163.206Z" fill="black"/>
<path d="M167.998 21.5349L167.543 24.1499H173.596L173.21 26.2749H167.191L166.696 29.0549H173.453L173.082 31.2449H163.845C164.195 29.2649 164.54 27.2882 164.88 25.3149C165.219 23.3415 165.564 21.3632 165.914 19.3799H175.126L174.735 21.5349H167.998Z" fill="black"/>
<path d="M186.382 22.0299C186.472 22.6156 186.462 23.2126 186.353 23.7949C186.248 24.3118 186.053 24.806 185.778 25.2549C185.506 25.6903 185.155 26.0702 184.744 26.3749C184.31 26.6984 183.824 26.9453 183.308 27.1049L184.521 31.2649H181.913L180.838 27.3749H178.2C178.076 28.0649 177.967 28.7149 177.863 29.3199C177.759 29.9249 177.651 30.5649 177.527 31.2449H175.111C175.458 29.2882 175.808 27.3082 176.161 25.3049C176.514 23.3016 176.864 21.3266 177.21 19.3799H182.403C182.846 19.3794 183.288 19.4196 183.724 19.4999C184.141 19.5737 184.544 19.7137 184.917 19.9149C185.28 20.1139 185.597 20.3882 185.848 20.7199C186.13 21.1055 186.314 21.5555 186.382 22.0299ZM183.645 24.3349C183.773 24.0875 183.866 23.8233 183.922 23.5499C183.981 23.2724 183.995 22.9868 183.962 22.7049C183.943 22.53 183.885 22.3617 183.794 22.2121C183.702 22.0625 183.578 21.9353 183.432 21.8399C183.117 21.6451 182.752 21.5461 182.383 21.5549H179.24L178.586 25.2049H181.556C181.744 25.2049 181.937 25.2049 182.135 25.2049C182.327 25.1878 182.516 25.1493 182.7 25.0899C182.878 25.0326 183.046 24.9447 183.195 24.8299C183.373 24.694 183.526 24.5262 183.645 24.3349Z" fill="black"/>
<path d="M72.0671 40.185C72.2684 40.1923 72.4661 40.241 72.6481 40.3279C72.8302 40.4149 72.9929 40.5384 73.1262 40.6909C73.2596 40.8433 73.3609 41.0216 73.4238 41.2149C73.4868 41.4081 73.5103 41.6123 73.4927 41.815C73.5114 42.0752 73.4567 42.3354 73.3349 42.5655C73.2131 42.7956 73.0292 42.9861 72.8046 43.115C72.1301 43.418 71.3931 43.5518 70.6563 43.505H67.6517V36.935H70.6563C71.3588 36.8824 72.0619 37.0296 72.6858 37.36C72.8958 37.5087 73.0641 37.7098 73.1743 37.9438C73.2844 38.1778 73.3327 38.4365 73.3145 38.695C73.3252 39.0303 73.228 39.3602 73.0373 39.635C72.7796 39.9268 72.4298 40.1195 72.0473 40.18L72.0671 40.185ZM68.3942 39.875H70.6563C71.1467 39.9038 71.6365 39.8093 72.0819 39.6C72.2303 39.5309 72.3559 39.4201 72.4436 39.2809C72.5314 39.1418 72.5777 38.98 72.5769 38.815C72.5777 38.6432 72.544 38.4732 72.4779 38.315C72.4099 38.1644 72.2975 38.0387 72.1562 37.955C71.974 37.8485 71.7745 37.7757 71.5671 37.74C71.2678 37.6899 70.9647 37.6665 70.6613 37.67H68.3991L68.3942 39.875ZM70.6563 42.79C71.0023 42.7959 71.3483 42.7741 71.6909 42.725C71.9151 42.6959 72.1327 42.6282 72.3344 42.525C72.4774 42.4559 72.5927 42.3395 72.6611 42.195C72.7868 41.8737 72.7868 41.5162 72.6611 41.195C72.5844 41.0406 72.4614 40.9146 72.3096 40.835C72.1104 40.7231 71.8921 40.6502 71.6661 40.62C71.3388 40.5673 71.0075 40.5439 70.6761 40.55H68.414V42.775L70.6563 42.79Z" fill="#FF8159"/>
<path d="M79.5564 40.9651V43.5001H78.809V40.9651L76.334 36.9351H77.1606L79.2 40.3301L81.18 36.9351H82.0067L79.5564 40.9651Z" fill="#FF8159"/>
<path d="M96.4508 36.9349V43.4999H95.7083V38.4199L93.4115 42.4199H93.3669L91.0701 38.4199V43.4999H90.3276V36.9349H91.08L93.357 40.9999H93.3818L95.6984 36.9299L96.4508 36.9349Z" fill="#FF8159"/>
<path d="M105.178 43.4999L104.534 41.9499H101.069L100.426 43.4999H99.594L102.396 36.9299H103.188L105.965 43.4999H105.178ZM101.307 41.2999H104.277L102.792 37.7499H102.762L101.307 41.2999Z" fill="#FF8159"/>
<path d="M114.419 39.0599C114.442 39.5284 114.313 39.9916 114.053 40.3799C113.787 40.7219 113.416 40.9647 112.999 41.0699L114.439 43.4999H113.627L112.281 41.1799H109.806V43.4999H109.063V36.9349H111.974C112.626 36.8909 113.271 37.0922 113.786 37.4999C113.999 37.6959 114.167 37.9377 114.277 38.2076C114.387 38.4774 114.435 38.7686 114.419 39.0599ZM111.994 40.4999C112.436 40.5292 112.875 40.4077 113.241 40.1549C113.393 40.0223 113.511 39.8554 113.587 39.6677C113.663 39.48 113.694 39.2769 113.677 39.0749C113.688 38.8796 113.655 38.6843 113.582 38.5034C113.508 38.3226 113.395 38.1607 113.251 38.0299C112.887 37.763 112.442 37.6338 111.994 37.6649H109.826V40.4999H111.994Z" fill="#FF8159"/>
<path d="M123.582 36.9351V43.5001H122.938L118.632 38.2301V43.5001H117.889V36.9351H118.553L122.849 42.3201V36.9351H123.582Z" fill="#FF8159"/>
<path d="M128.091 36.9351V43.5001H127.349V36.9351H128.091Z" fill="#FF8159"/>
<path d="M142.758 36.9351V43.5001H142.115L137.808 38.2301V43.5001H137.066V36.9351H137.724L142.025 42.3201V36.9351H142.758Z" fill="#FF8159"/>
<path d="M147.267 36.9351V43.5001H146.52V36.9351H147.267Z" fill="#FF8159"/>
<path d="M157.123 42.5C156.803 42.8625 156.405 43.1464 155.96 43.33C154.966 43.7072 153.874 43.7231 152.871 43.375C152.448 43.2236 152.061 42.9833 151.737 42.67C151.418 42.3655 151.169 41.9932 151.01 41.58C150.835 41.1345 150.748 40.6591 150.752 40.18C150.747 39.7078 150.832 39.239 151.005 38.8C151.165 38.3941 151.41 38.0276 151.722 37.725C152.046 37.415 152.431 37.1766 152.851 37.025C153.328 36.8559 153.831 36.773 154.336 36.78C154.896 36.7678 155.452 36.8734 155.969 37.09C156.429 37.2862 156.837 37.5875 157.162 37.97L156.539 38.405C156.273 38.1121 155.947 37.8817 155.583 37.73C155.188 37.5662 154.764 37.4846 154.336 37.49C153.952 37.4871 153.57 37.5514 153.207 37.68C152.874 37.7966 152.568 37.9803 152.306 38.22C152.051 38.4583 151.847 38.7478 151.708 39.07C151.557 39.4198 151.482 39.7985 151.49 40.18C151.483 40.569 151.556 40.9553 151.703 41.315C151.837 41.6404 152.037 41.9335 152.292 42.175C152.554 42.4145 152.86 42.5997 153.193 42.72C153.56 42.8486 153.947 42.9128 154.336 42.91C154.752 42.9162 155.165 42.8432 155.554 42.695C155.91 42.5574 156.23 42.3383 156.489 42.055L157.123 42.5Z" fill="#FF8159"/>
<path d="M163.904 36.795C164.41 36.7884 164.913 36.8731 165.389 37.045C165.812 37.1976 166.198 37.4377 166.523 37.75C166.838 38.0571 167.085 38.4287 167.246 38.84C167.423 39.2864 167.51 39.764 167.503 40.245C167.507 40.7041 167.421 41.1594 167.251 41.585C167.091 41.9914 166.848 42.3593 166.538 42.665C166.214 42.983 165.828 43.2283 165.404 43.385C164.93 43.5646 164.426 43.6528 163.919 43.645C163.413 43.6526 162.91 43.5679 162.434 43.395C162.014 43.241 161.628 43.0029 161.301 42.695C160.984 42.393 160.734 42.0266 160.568 41.62C160.396 41.1827 160.31 40.7156 160.316 40.245C160.311 39.7717 160.395 39.3019 160.563 38.86C160.723 38.4493 160.968 38.0778 161.281 37.77C161.605 37.4564 161.989 37.2131 162.41 37.055C162.887 36.8748 163.394 36.7866 163.904 36.795ZM163.904 42.93C164.295 42.9348 164.683 42.8722 165.053 42.745C165.388 42.6259 165.696 42.4406 165.959 42.2C166.215 41.9645 166.417 41.6741 166.548 41.35C166.694 41.0006 166.767 40.6243 166.761 40.245C166.765 39.8545 166.692 39.4672 166.548 39.105C166.412 38.7781 166.208 38.4847 165.949 38.245C165.685 38.0059 165.377 37.8224 165.043 37.705C164.678 37.5723 164.292 37.5063 163.904 37.51C163.499 37.5031 163.095 37.5691 162.712 37.705C162.379 37.8212 162.075 38.005 161.816 38.245C161.569 38.4877 161.377 38.781 161.251 39.105C161.118 39.4698 161.053 39.8562 161.058 40.245C161.053 40.621 161.125 40.994 161.271 41.34C161.41 41.6598 161.612 41.9474 161.865 42.185C162.131 42.4234 162.438 42.6099 162.771 42.735C163.134 42.8681 163.518 42.9342 163.904 42.93Z" fill="#FF8159"/>
<path d="M175.453 42.7901V43.5001H170.998V36.9351H171.74V42.7901H175.453Z" fill="#FF8159"/>
<path d="M179.408 37.6501V39.8701H183.303V40.5701H179.408V42.7901H183.769V43.5001H178.665V36.9351H183.769V37.6501H179.408Z" fill="#FF8159"/>
<path d="M186.372 18.5749C186.127 18.5759 185.887 18.5033 185.683 18.3664C185.479 18.2294 185.319 18.0342 185.225 17.8056C185.131 17.577 185.106 17.3253 185.154 17.0823C185.201 16.8394 185.319 16.6162 185.492 16.4411C185.666 16.266 185.887 16.1468 186.127 16.0987C186.368 16.0507 186.617 16.0758 186.843 16.1711C187.07 16.2663 187.263 16.4273 187.399 16.6336C187.534 16.8399 187.606 17.0823 187.605 17.3299C187.605 17.6601 187.475 17.9768 187.244 18.2103C187.013 18.4438 186.699 18.5749 186.372 18.5749ZM186.372 16.2699C186.165 16.269 185.961 16.3303 185.788 16.4461C185.615 16.562 185.48 16.7272 185.399 16.9208C185.319 17.1144 185.298 17.3277 185.338 17.5337C185.378 17.7396 185.477 17.9289 185.624 18.0777C185.77 18.2264 185.957 18.3279 186.161 18.3692C186.365 18.4105 186.576 18.3898 186.768 18.3097C186.96 18.2296 187.124 18.0938 187.24 17.9194C187.355 17.7449 187.417 17.5398 187.417 17.3299C187.418 17.191 187.391 17.0533 187.339 16.9247C187.287 16.7961 187.21 16.6792 187.113 16.5807C187.016 16.4822 186.9 16.4041 186.773 16.3507C186.646 16.2974 186.51 16.2699 186.372 16.2699Z" fill="#050505"/>
<path d="M186.962 17.0751C186.964 17.1627 186.938 17.2487 186.887 17.3201C186.836 17.3884 186.765 17.4391 186.684 17.4651L186.966 17.9651H186.739L186.481 17.5101H186.075V17.9651H185.853V16.6351H186.452C186.524 16.6341 186.595 16.6443 186.665 16.6651C186.723 16.6827 186.777 16.7135 186.823 16.7551C186.869 16.7893 186.905 16.8361 186.927 16.8901C186.952 16.9484 186.963 17.0116 186.962 17.0751ZM186.467 17.3151C186.542 17.3209 186.616 17.3016 186.679 17.2601C186.727 17.2097 186.754 17.1425 186.754 17.0726C186.754 17.0026 186.727 16.9354 186.679 16.8851C186.617 16.8421 186.542 16.8226 186.467 16.8301H186.09V17.3301L186.467 17.3151Z" fill="#050505"/>
</svg>
