<svg width="56" height="16" viewBox="0 0 56 16" fill="none" xmlns="http://www.w3.org/2000/svg">
<path d="M43.7176 2.95893C42.3428 2.95893 41.243 3.32555 40.3264 3.50885L40.0515 5.61687C40.5097 5.43356 41.7929 5.06695 42.8927 4.9753C43.9925 4.9753 44.6341 5.1586 44.4508 6.16678C41.1513 6.16678 38.9516 6.80835 38.4934 9.00802C37.8518 12.6741 41.8845 12.7658 43.4426 11.116L43.2593 12.1242H46.1922L47.4754 6.16678C47.9336 3.69216 45.734 2.86728 43.7176 2.95893ZM43.9009 9.09968C43.7176 9.8329 43.076 10.1079 42.3428 10.1995C41.7012 10.1995 41.1513 9.8329 41.5179 9.09968C41.8845 8.54976 42.7094 8.54976 43.351 8.54976C43.5343 8.54976 43.8092 8.54976 44.0842 8.54976C43.9925 8.45811 43.9009 8.82472 43.9009 9.09968Z" fill="#32A6CE"/>
<path d="M40.0515 5.61707C40.5097 5.43377 41.7929 5.06715 42.8927 4.9755C43.9925 4.9755 44.6341 5.1588 44.4508 6.16699C41.1513 6.16699 38.9516 6.80856 38.4934 9.00824C37.8518 12.6744 41.8845 12.766 43.4426 11.1163L43.2593 12.1244H46.1922L47.4754 6.16699C48.0253 3.69235 45.7339 3.05078 43.7176 3.05078L40.0515 5.61707ZM43.9009 9.09989C43.7176 9.83312 43.076 10.1081 42.3428 10.1997C41.7012 10.1997 41.1513 9.83312 41.5179 9.09989C41.8845 8.54997 42.7094 8.54997 43.351 8.54997C43.5343 8.54997 43.8092 8.54997 44.0842 8.54997C43.9925 8.45832 43.9009 8.82493 43.9009 9.09989Z" fill="#1A80AD"/>
<path d="M49.9518 0.209961L47.5688 12.1249H50.5017L52.9764 0.209961H49.9518Z" fill="#32A6CE"/>
<path d="M52.0598 0.209961L47.5688 12.1249H50.5017L52.9764 0.209961H49.9518H52.0598Z" fill="#1A80AD"/>
<path d="M36.2939 0.209961H30.8864L28.5034 12.1249H31.7113L32.5361 8.45874H34.8275C37.0271 8.45874 38.8602 7.17559 39.3185 4.88427C39.7767 2.22633 37.852 0.209961 36.2939 0.209961ZM36.2023 4.33435C36.019 5.15923 35.1941 5.70914 34.3692 5.70914H32.9028L33.5443 2.95955H35.1024C35.9273 2.95955 36.3856 3.50947 36.2023 4.33435Z" fill="#32A6CE"/>
<path d="M36.2945 0.209961H32.6284L28.4124 12.1249H31.6202L32.4451 8.45874H34.7364C36.9361 8.45874 38.7691 7.17559 39.2274 4.88427C39.7773 2.22633 37.8526 0.209961 36.2945 0.209961ZM36.2029 4.33435C36.0195 5.15923 35.1947 5.70914 34.3698 5.70914H32.9033L33.5449 2.95955H35.103C35.9279 2.95955 36.3862 3.50947 36.2029 4.33435Z" fill="#1A80AD"/>
<path d="M15.1233 2.95893C13.7485 2.95893 12.6487 3.32555 11.8238 3.50885L11.5489 5.61687C11.9155 5.43356 13.2903 5.06695 14.3901 4.9753C15.4899 4.9753 16.1315 5.1586 15.9482 6.16678C12.7404 6.16678 10.5407 6.80835 10.0824 9.00802C9.44085 12.6741 13.3819 12.7658 14.94 11.116L14.7567 12.1242H17.6896L18.9728 6.16678C19.431 3.69216 17.1397 2.86728 15.1233 2.95893ZM15.3983 9.09968C15.215 9.8329 14.5734 10.1079 13.8402 10.1995C13.1986 10.1995 12.6487 9.8329 13.107 9.09968C13.4736 8.54976 14.2985 8.54976 14.8484 8.54976C15.1233 8.54976 15.3066 8.54976 15.5816 8.54976C15.4899 8.45811 15.3983 8.82472 15.3983 9.09968Z" fill="#21789E"/>
<path d="M11.6397 5.61707C12.0063 5.43377 13.3811 5.06715 14.4809 4.9755C15.5808 4.9755 16.2223 5.1588 16.039 6.16699C12.8312 6.16699 10.6315 6.80856 10.1732 9.00824C9.53167 12.6744 13.4727 12.766 15.0308 11.1163L14.7559 12.1244H17.6888L18.9719 6.16699C19.5218 3.69235 17.2305 3.05078 15.2142 3.05078L11.6397 5.61707ZM15.3975 9.09989C15.2142 9.83312 14.5726 10.1081 13.8394 10.1997C13.1978 10.1997 12.6479 9.83312 13.1061 9.09989C13.4727 8.54997 14.2976 8.54997 14.8475 8.54997C15.1225 8.54997 15.3058 8.54997 15.5808 8.54997C15.4891 8.45832 15.3975 8.82493 15.3975 9.09989Z" fill="#1A5B80"/>
<path d="M20.1638 2.95898H23.0967L23.555 8.09155L26.4879 2.95898H29.5125L22.5468 15.7904H19.2473L21.3553 11.941L20.1638 2.95898Z" fill="#21789E"/>
<path d="M23.0967 3.14229L23.555 8.18321L26.4879 2.95898H29.5125L22.5468 15.7904H19.2473L21.3553 12.0326" fill="#1A5B80"/>
<path d="M7.88216 0.209961H2.38298L0 12.1249H3.20786L4.03273 8.45874H6.32406C8.52373 8.45874 10.3568 7.17559 10.8151 4.88427C11.365 2.22633 9.44026 0.209961 7.88216 0.209961ZM7.79051 4.33435C7.6072 5.15923 6.78232 5.70914 5.95745 5.70914H4.491L5.13257 2.95955H6.69067C7.51555 2.95955 7.97381 3.50947 7.79051 4.33435Z" fill="#21789E"/>
<path d="M7.88216 0.209961H5.40753L0 12.1249H3.20786L4.03273 8.45874H6.32406C8.52373 8.45874 10.3568 7.17559 10.8151 4.88427C11.365 2.22633 9.44026 0.209961 7.88216 0.209961ZM7.79051 4.33435C7.6072 5.15923 6.78232 5.70914 5.95745 5.70914H4.491L5.13257 2.95955H6.69067C7.51555 2.95955 7.97381 3.50947 7.79051 4.33435Z" fill="#1A5B80"/>
<path d="M14.5715 6.16699C12.0968 6.3503 10.4471 7.08352 10.0805 8.91658C9.4389 12.5827 13.38 12.6744 14.9381 11.0246L14.7548 12.1244H17.6877L18.1459 9.92477L14.5715 6.16699ZM15.3963 9.09989C15.213 9.83311 14.5715 10.1081 13.8382 10.1997C13.1967 10.1997 12.6468 9.83311 13.105 9.09989C13.4716 8.54997 14.2965 8.54997 14.8464 8.54997C15.1214 8.54997 15.3047 8.54997 15.5796 8.54997C15.488 8.45832 15.3963 8.82493 15.3963 9.09989Z" fill="#06435E"/>
<path d="M23.7385 7.9999L23.5552 8.27486L25.4799 10.1079L29.5126 2.95898H26.4881L23.7385 7.9999Z" fill="#06435E"/>
<path d="M3.20731 12.1241L4.03219 8.45801L0.274414 12.1241H3.20731Z" fill="#06435E"/>
<path d="M31.6197 12.1248L32.4445 8.27539V8.36704L28.6868 12.1248H31.6197Z" fill="#2273AA"/>
<path d="M43.0769 6.16699C40.6023 6.3503 38.9525 7.08352 38.5859 8.91658C37.9443 12.5827 41.9771 12.6744 43.5352 11.0246L43.2602 12.1244H46.1931L46.6514 9.92477L43.0769 6.16699ZM43.9018 9.09989C43.7185 9.83311 43.0769 10.1081 42.3437 10.1997C41.7021 10.1997 41.1522 9.83311 41.5188 9.09989C41.8854 8.54997 42.7103 8.54997 43.3518 8.54997C43.5352 8.54997 43.8101 8.54997 44.0851 8.54997C43.9934 8.45832 43.9018 8.82493 43.9018 9.09989Z" fill="#2273AA"/>
<path d="M49.6744 6.7168L47.5664 12.1243H50.4993L51.3242 8.4582L49.6744 6.7168Z" fill="#2273AA"/>
<path d="M53.617 2.13442V0.851275H53.1587V0.667969H54.3502V0.851275H53.8919V2.13442H53.617Z" fill="#32A6CE"/>
<path d="M54.5334 2.13427V0.667823H54.8084L55.175 1.67601C55.175 1.76766 55.2667 1.85931 55.2667 1.85931C55.2667 1.76766 55.2667 1.76766 55.3583 1.58435L55.7249 0.576172H55.9999V2.04262H55.8166V0.759477L55.3583 2.04262H55.0834L54.6251 0.759477V2.04262H54.5334V2.13427Z" fill="#32A6CE"/>
</svg>
