<svg width="16" height="16" viewBox="0 0 16 16" fill="none" xmlns="http://www.w3.org/2000/svg">
<path d="M3.18839 5.54766C4.43231 6.59376 6.61499 8.43415 7.25651 9.00799C7.34262 9.08544 7.43499 9.12481 7.53088 9.12481C7.62658 9.12481 7.71879 9.08581 7.80472 9.00873C8.44678 8.43433 10.6295 6.59376 11.8734 5.54766C11.9508 5.48266 11.9626 5.3684 11.8999 5.28893C11.755 5.10529 11.5389 5 11.3073 5H3.75448C3.52289 5 3.30677 5.10529 3.16184 5.28895C3.09914 5.3684 3.11095 5.48266 3.18839 5.54766Z" fill="white"/>
<path d="M11.9539 6.11453C11.887 6.08359 11.8082 6.09438 11.7526 6.14163C10.3731 7.30288 8.61249 8.79136 8.05856 9.28701C7.74766 9.56569 7.31618 9.56569 7.00455 9.28664C6.41412 8.75838 4.43703 7.08937 3.31094 6.14161C3.25488 6.09436 3.17596 6.08394 3.10958 6.11451C3.04285 6.14529 3.00006 6.21158 3.00006 6.28463V11C3.00006 11.4136 3.33879 11.75 3.75535 11.75H11.3082C11.7247 11.75 12.0634 11.4136 12.0634 11V6.28463C12.0634 6.21158 12.0207 6.14511 11.9539 6.11453Z" fill="white"/>
</svg>
