<svg width="16" height="16" viewBox="0 0 16 16" fill="none" xmlns="http://www.w3.org/2000/svg">
<path d="M13.8823 5.06695C13.4541 5.25415 13.0259 5.37105 12.598 5.41801C13.0813 5.12321 13.4083 4.70673 13.5786 4.16861C13.1365 4.43528 12.6647 4.61773 12.163 4.71605C11.721 4.23875 11.1779 4 10.5333 4C9.91656 4 9.39068 4.22107 8.95549 4.66331C8.52054 5.10553 8.30305 5.64011 8.30305 6.26714C8.30305 6.43557 8.32143 6.60877 8.35829 6.78657C7.4468 6.73979 6.59176 6.50699 5.79302 6.08818C4.99433 5.66932 4.31649 5.11128 3.75951 4.41407C3.55696 4.76495 3.45565 5.14639 3.45565 5.55817C3.45565 5.94657 3.5454 6.30694 3.72502 6.63919C3.90452 6.97138 4.14625 7.24042 4.45009 7.44635C4.09097 7.43228 3.75494 7.33633 3.44196 7.1585V7.18658C3.44196 7.73412 3.61113 8.21483 3.94944 8.6291C4.28778 9.04331 4.71477 9.30404 5.2303 9.41172C5.03694 9.46313 4.84126 9.48887 4.64335 9.48887C4.51445 9.48887 4.37403 9.47719 4.22215 9.45396C4.36484 9.90778 4.62725 10.2808 5.00928 10.5735C5.39138 10.8659 5.8241 11.0167 6.30746 11.0263C5.49731 11.6719 4.57435 11.9948 3.5386 11.9948C3.34062 11.9948 3.16115 11.9856 3 11.9668C4.03578 12.6452 5.17739 12.9844 6.4249 12.9844C7.21668 12.9844 7.96013 12.8571 8.65501 12.602C9.35024 12.347 9.94401 12.0054 10.4366 11.5771C10.9291 11.1489 11.3538 10.6564 11.7105 10.0996C12.0673 9.54271 12.333 8.96134 12.5081 8.35536C12.6829 7.74926 12.7704 7.14223 12.7704 6.53379C12.7704 6.40275 12.7681 6.30453 12.7635 6.23899C13.2009 5.91625 13.5738 5.52545 13.8823 5.06695Z" fill="white"/>
</svg>
