<svg width="94" height="94" viewBox="0 0 94 94" fill="none" xmlns="http://www.w3.org/2000/svg">
<g clip-path="url(#clip0)">
<path d="M93.077 32.7602L82.6514 25.6944V18.0329C82.6514 17.0241 81.8336 16.2063 80.8248 16.2063H68.6494L48.2367 2.37292C47.618 1.95365 46.8063 1.95365 46.1874 2.37292L25.7748 16.2065H13.5993C12.5905 16.2065 11.7728 17.0243 11.7728 18.0331V25.6946L1.34713 32.7602C0.845827 33.1 0.54541 33.6666 0.54541 34.2721V89.4484C0.54541 90.4572 1.36317 91.2749 2.37197 91.2749H92.0522C93.061 91.2749 93.8787 90.4572 93.8787 89.4484V34.2721C93.8787 33.6666 93.5783 33.1 93.077 32.7602ZM4.19835 38.6045L31.7949 61.8603L4.19835 85.1162V38.6045ZM35.2964 63.6869H59.1278L87.5304 87.622H6.89354L35.2964 63.6869ZM62.6292 61.8603L90.2258 38.6045V85.1162L62.6292 61.8603ZM89.2961 34.6108L82.6512 40.2105V30.1073L89.2961 34.6108ZM47.2121 6.09131L62.1378 16.2063H32.2864L47.2121 6.09131ZM78.9983 19.8594V43.2888L59.1278 60.0338H35.2964L15.4259 43.2888V19.8594H78.9983ZM11.7729 40.2105L5.12804 34.6108L11.7729 30.1073V40.2105Z" fill="#FF8159"/>
<path d="M45.9187 53.4522C46.6227 54.1562 47.8021 54.1558 48.5056 53.4522C48.5056 53.4522 60.0259 41.9045 60.2486 41.6291C60.2508 41.6264 60.2532 41.6234 60.2554 41.6207C62.3924 38.9467 62.8554 35.34 61.4642 32.2088C61.0097 31.1852 60.3744 30.2601 59.574 29.4575C57.8473 27.7308 55.5521 26.78 53.1108 26.78C50.927 26.78 48.8596 27.541 47.2119 28.9376C43.6244 25.9033 38.2311 26.0763 34.8487 29.4591C34.0499 30.2601 33.4146 31.1852 32.9601 32.2088C32.4389 33.3829 32.1748 34.6316 32.1748 35.9197C32.1748 37.9853 32.8828 40.0096 34.1758 41.6291C34.3984 41.9045 45.9187 53.4522 45.9187 53.4522ZM36.2988 33.6908C36.571 33.0776 36.9534 32.5218 37.4334 32.0405C38.5031 30.9707 39.9083 30.4358 41.3135 30.4358C42.7186 30.4358 44.1238 30.9707 45.1935 32.0405C45.7738 32.6208 46.3126 33.3024 47.212 33.3024C48.1113 33.3024 48.6503 32.6206 49.2306 32.0405C50.2671 31.0039 51.6452 30.4331 53.1106 30.4331C54.5763 30.4331 55.9542 31.004 56.9891 32.0389C59.1053 34.1611 59.1108 37.6792 56.9907 39.7992L47.212 49.5794L37.4334 39.7989C35.8462 38.2128 35.3886 35.7418 36.2988 33.6908Z" fill="#FF8159"/>
<path d="M58.8815 83.9654C59.8883 83.9654 60.7044 83.1493 60.7044 82.1425C60.7044 81.1357 59.8883 80.3196 58.8815 80.3196C57.8747 80.3196 57.0586 81.1357 57.0586 82.1425C57.0586 83.1493 57.8747 83.9654 58.8815 83.9654Z" fill="#FF8159"/>
<path d="M50.7438 80.3161H33.7161C32.7073 80.3161 31.8895 81.1339 31.8895 82.1427C31.8895 83.1515 32.7073 83.9692 33.7161 83.9692H50.7438C51.7526 83.9692 52.5703 83.1515 52.5703 82.1427C52.5703 81.1339 51.7526 80.3161 50.7438 80.3161Z" fill="#FF8159"/>
</g>
<defs>
<clipPath id="clip0">
<rect width="93.3333" height="93.3333" fill="white" transform="translate(0.54541)"/>
</clipPath>
</defs>
</svg>
