<svg width="34" height="34" viewBox="0 0 34 34" fill="none" xmlns="http://www.w3.org/2000/svg">
<path d="M31.7826 10.3479H30.3043C30.0442 10.3479 29.7973 10.4011 29.5652 10.4839V8.13048C29.5652 6.90796 28.5703 5.91309 27.3478 5.91309H25.8696C24.647 5.91309 23.6522 6.90796 23.6522 8.13048V13.3044H10.3478V8.13048C10.3478 6.90796 9.35296 5.91309 8.13043 5.91309H6.65217C5.42965 5.91309 4.43478 6.90796 4.43478 8.13048V10.4839C4.2027 10.4011 3.95583 10.3479 3.69565 10.3479H2.21739C0.99487 10.3479 0 11.3427 0 12.5653V21.4348C0 22.6573 0.99487 23.6522 2.21739 23.6522H3.69565C3.95583 23.6522 4.2027 23.599 4.43478 23.5162V25.8696C4.43478 27.0921 5.42965 28.087 6.65217 28.087H8.13043C9.35296 28.087 10.3478 27.0921 10.3478 25.8696V20.6957H23.6522V25.8696C23.6522 27.0921 24.647 28.087 25.8696 28.087H27.3478C28.5703 28.087 29.5652 27.0921 29.5652 25.8696V23.5162C29.7973 23.599 30.0442 23.6522 30.3043 23.6522H31.7826C33.0051 23.6522 34 22.6573 34 21.4348V12.5653C34 11.3427 33.0051 10.3479 31.7826 10.3479ZM4.43478 21.4348C4.43478 21.8421 4.10291 22.174 3.69565 22.174H2.21739C1.81013 22.174 1.47826 21.8421 1.47826 21.4348V12.5653C1.47826 12.158 1.81013 11.8261 2.21739 11.8261H3.69565C4.10291 11.8261 4.43478 12.158 4.43478 12.5653V21.4348ZM8.86957 25.8696C8.86957 26.2769 8.5377 26.6087 8.13043 26.6087H6.65217C6.24491 26.6087 5.91304 26.2769 5.91304 25.8696V21.4348V12.5653V8.13048C5.91304 7.72322 6.24491 7.39135 6.65217 7.39135H8.13043C8.5377 7.39135 8.86957 7.72322 8.86957 8.13048V25.8696ZM23.6522 19.2174H10.3478V14.7826H23.6522V19.2174ZM28.087 12.5653V21.4348V25.8696C28.087 26.2769 27.7551 26.6087 27.3478 26.6087H25.8696C25.4623 26.6087 25.1304 26.2769 25.1304 25.8696V8.13048C25.1304 7.72322 25.4623 7.39135 25.8696 7.39135H27.3478C27.7551 7.39135 28.087 7.72322 28.087 8.13048V12.5653ZM32.5217 21.4348C32.5217 21.8421 32.1899 22.174 31.7826 22.174H30.3043C29.8971 22.174 29.5652 21.8421 29.5652 21.4348V12.5653C29.5652 12.158 29.8971 11.8261 30.3043 11.8261H31.7826C32.1899 11.8261 32.5217 12.158 32.5217 12.5653V21.4348Z" fill="#FF8159"/>
</svg>
