<svg width="34" height="34" viewBox="0 0 34 34" fill="none" xmlns="http://www.w3.org/2000/svg">
<path d="M30.4416 25.9456C30.9427 25.3594 31.2462 24.5994 31.2462 23.7693V23.4103C31.2462 21.56 29.7409 20.0547 27.8906 20.0547C26.0403 20.0547 24.535 21.56 24.535 23.4103V23.7693C24.535 24.5994 24.8385 25.3594 25.3397 25.9456C24.113 26.2613 23.0777 27.0574 22.4453 28.1202C21.8129 27.0574 20.7776 26.2613 19.5509 25.9456C20.0521 25.3594 20.3556 24.5994 20.3556 23.7693V23.4103C20.3556 21.56 18.8503 20.0547 17 20.0547C15.1497 20.0547 13.6444 21.56 13.6444 23.4103V23.7693C13.6444 24.5994 13.9479 25.3594 14.4491 25.9456C13.2224 26.2613 12.1871 27.0574 11.5547 28.1202C10.9223 27.0574 9.88701 26.2613 8.66031 25.9456C9.16147 25.3594 9.46497 24.5994 9.46497 23.7693V23.4103C9.46497 21.56 7.95967 20.0547 6.10938 20.0547C4.25908 20.0547 2.75378 21.56 2.75378 23.4103V23.7693C2.75378 24.5994 3.05728 25.3594 3.55844 25.9456C1.51463 26.4717 0 28.33 0 30.5357V33.3359C0 33.7027 0.297272 34 0.664062 34H33.3359C33.7027 34 34 33.7027 34 33.3359V30.5357C34 28.33 32.4854 26.4717 30.4416 25.9456ZM25.8632 23.4103C25.8632 22.2923 26.7726 21.3828 27.8906 21.3828C29.0086 21.3828 29.9181 22.2923 29.9181 23.4103V23.7693C29.9181 24.8873 29.0086 25.7968 27.8906 25.7968C26.7726 25.7968 25.8632 24.8873 25.8632 23.7693V23.4103ZM14.9725 23.4103C14.9725 22.2923 15.882 21.3828 17 21.3828C18.118 21.3828 19.0275 22.2923 19.0275 23.4103V23.7693C19.0275 24.8873 18.118 25.7968 17 25.7968C15.882 25.7968 14.9725 24.8873 14.9725 23.7693V23.4103ZM4.08191 23.4103C4.08191 22.2923 4.99136 21.3828 6.10938 21.3828C7.22739 21.3828 8.13684 22.2923 8.13684 23.4103V23.7693C8.13684 24.8873 7.22739 25.7968 6.10938 25.7968C4.99136 25.7968 4.08191 24.8873 4.08191 23.7693V23.4103ZM1.32812 30.5357C1.32812 28.6551 2.85806 27.1249 4.73897 27.1249H7.47978C9.36043 27.1249 10.8906 28.6551 10.8906 30.5357V32.6719H1.32812V30.5357ZM12.2188 30.5357C12.2188 28.6551 13.7487 27.1249 15.6296 27.1249H18.3704C20.2511 27.1249 21.7812 28.6551 21.7812 30.5357V32.6719H12.2188V30.5357ZM32.6719 32.6719H23.1094V30.5357C23.1094 28.6551 24.6393 27.1249 26.5202 27.1249H29.261C31.1417 27.1249 32.6719 28.6551 32.6719 30.5357V32.6719Z" fill="#FF8159"/>
<path d="M5.13585 13.3202L5.12988 17.0073C5.12936 17.2641 5.27722 17.4983 5.50912 17.6083C5.59991 17.6514 5.69719 17.6726 5.79369 17.6726C5.9444 17.6726 6.09355 17.6213 6.21443 17.5222L9.96561 14.4519H14.1155L16.4895 17.4228C16.6192 17.5852 16.8182 17.6786 17.0252 17.6721C17.2329 17.6669 17.4262 17.5647 17.5473 17.3961L19.6646 14.4517H24.0611L27.7952 17.5214C27.9936 17.6846 28.2683 17.7185 28.5005 17.6088C28.7329 17.4991 28.881 17.2651 28.881 17.0083V13.3095C30.9419 11.9855 32.207 9.68961 32.207 7.22583C32.207 3.24146 28.9656 0 24.9812 0H9.0188C5.03442 0 1.79297 3.24146 1.79297 7.22583C1.79297 9.69791 3.06429 11.998 5.13585 13.3202ZM9.0188 1.32812H24.9812C28.2333 1.32812 30.8789 3.974 30.8789 7.22583C30.8789 9.34409 29.7331 11.3103 27.8891 12.358C27.6813 12.4758 27.5529 12.6963 27.5529 12.9352V15.6029L24.7205 13.2748C24.6017 13.177 24.4528 13.1235 24.299 13.1235H19.3242C19.1105 13.1235 18.91 13.2265 18.7852 13.4001L16.9805 15.9095L14.9539 13.3731C14.8278 13.2154 14.6369 13.1235 14.4351 13.1235H9.72852C9.57521 13.1235 9.42657 13.1767 9.30777 13.2737L6.46034 15.6047L6.46449 12.9461C6.46501 12.7059 6.33583 12.4844 6.12675 12.3666C4.27283 11.3212 3.12109 9.35135 3.12109 7.22583C3.12109 3.974 5.76671 1.32812 9.0188 1.32812Z" fill="#FF8159"/>
<path d="M24.9812 3.98438H25.0035H25.0061C25.3716 3.98438 25.6689 3.68892 25.6702 3.32291C25.6717 2.95612 25.3755 2.65781 25.0087 2.65625H24.9812C24.6144 2.65625 24.3171 2.95352 24.3171 3.32031C24.3171 3.6871 24.6144 3.98438 24.9812 3.98438Z" fill="#FF8159"/>
<path d="M27.1105 4.78408C27.8174 5.40145 28.2228 6.29145 28.2228 7.2258C28.2228 8.11061 27.8713 8.93758 27.2332 9.55495C26.9697 9.80994 26.9627 10.2302 27.2174 10.494C27.3479 10.6286 27.5212 10.6963 27.695 10.6963C27.8612 10.6963 28.0275 10.6343 28.1564 10.5095C29.0558 9.63977 29.5509 8.47377 29.5509 7.2258C29.5509 5.90779 28.9798 4.65308 27.9842 3.78357C27.7079 3.54233 27.2885 3.57086 27.0472 3.84712C26.806 4.12339 26.8343 4.54283 27.1105 4.78408Z" fill="#FF8159"/>
<path d="M14.9589 9.31448C15.7851 10.0789 16.6009 10.6359 16.6351 10.6592C16.7477 10.736 16.8782 10.7741 17.0087 10.7741C17.1389 10.7741 17.2693 10.7357 17.3819 10.6592C17.4162 10.6359 18.232 10.0789 19.0582 9.31448C20.2776 8.18661 20.8701 7.22269 20.8701 6.36823C20.8701 4.88472 19.7414 3.67773 18.3539 3.67773C17.8748 3.67773 17.4076 3.82533 17.0087 4.09485C16.6092 3.82533 16.1423 3.67773 15.6631 3.67773C14.2756 3.67773 13.147 4.88446 13.147 6.36823C13.147 7.22269 13.7394 8.18636 14.9589 9.31448ZM15.6631 5.00586C15.9814 5.00586 16.2808 5.14931 16.5062 5.41C16.6325 5.55579 16.8157 5.63957 17.0087 5.63957C17.2014 5.63957 17.3845 5.55579 17.5108 5.41C17.7363 5.14931 18.0356 5.00586 18.3539 5.00586C19.0091 5.00586 19.5419 5.617 19.5419 6.36823C19.5419 7.11115 18.1425 8.45094 17.0081 9.29477C15.8738 8.45198 14.4748 7.11322 14.4748 6.36823C14.4751 5.617 15.0079 5.00586 15.6631 5.00586Z" fill="#FF8159"/>
</svg>
